{
    "asset" : {
        "generator" : "Khronos glTF Blender I/O v1.1.46",
        "version" : "2.0"
    },
    "scene" : 0,
    "scenes" : [
        {
            "name" : "Scene",
            "nodes" : [
                0,
                1,
                2,
                3,
                4
            ]
        }
    ],
    "nodes" : [
        {
            "name" : "Light",
            "rotation" : [
                0.16907575726509094,
                0.7558803558349609,
                -0.27217137813568115,
                0.570947527885437
            ],
            "translation" : [
                4.076245307922363,
                5.903861999511719,
                -1.0054539442062378
            ]
        },
        {
            "name" : "Camera",
            "rotation" : [
                0.483536034822464,
                0.33687159419059753,
                -0.20870360732078552,
                0.7804827094078064
            ],
            "translation" : [
                7.358891487121582,
                4.958309173583984,
                6.925790786743164
            ]
        },
        {
            "mesh" : 0,
            "name" : "cap",
            "rotation" : [
                0.7071068286895752,
                0,
                0,
                0.7071067094802856
            ],
            "scale" : [
                0.19222967326641083,
                0.19222970306873322,
                0.19222970306873322
            ],
            "translation" : [
                0.01975533366203308,
                2.4118428230285645,
                0.0028727389872074127
            ]
        },
        {
            "mesh" : 1,
            "name" : "body",
            "rotation" : [
                0.7071068286895752,
                0,
                0,
                0.7071067094802856
            ],
            "scale" : [
                0.3562011122703552,
                0.3562012016773224,
                0.3562012016773224
            ],
            "translation" : [
                0.017797350883483887,
                0.2936297655105591,
                0.002872459590435028
            ]
        },
        {
            "name" : "Camera.001",
            "rotation" : [
                1,
                0,
                0,
                -1.3435885648505064e-07
            ],
            "translation" : [
                -0.018318049609661102,
                -0.5711756348609924,
                27.584949493408203
            ]
        }
    ],
    "materials" : [
        {
            "doubleSided" : true,
            "emissiveFactor" : [
                0,
                0,
                0
            ],
            "name" : "cap",
            "pbrMetallicRoughness" : {
                "baseColorFactor" : [
                    1,
                    1,
                    1,
                    1
                ],
                "metallicFactor" : 0.75,
                "roughnessFactor" : 0.25
            }
        },
        {
            "doubleSided" : true,
            "emissiveFactor" : [
                0,
                0,
                0
            ],
            "name" : "body",
            "pbrMetallicRoughness" : {
                "baseColorTexture" : {
                    "index" : 0,
                    "texCoord" : 0
                },
                "metallicFactor" : 0.75,
                "roughnessFactor" : 0.25
            }
        }
    ],
    "meshes" : [
        {
            "name" : "cap",
            "primitives" : [
                {
                    "attributes" : {
                        "POSITION" : 0,
                        "NORMAL" : 1
                    },
                    "indices" : 2,
                    "material" : 0
                }
            ]
        },
        {
            "name" : "body",
            "primitives" : [
                {
                    "attributes" : {
                        "POSITION" : 3,
                        "NORMAL" : 4,
                        "TEXCOORD_0" : 5
                    },
                    "indices" : 6,
                    "material" : 1
                }
            ]
        }
    ],
    "textures" : [
        {
            "source" : 0
        }
    ],
    "images" : [
        {
            "bufferView" : 7,
            "mimeType" : "image/jpeg",
            "name" : "Yeti"
        }
    ],
    "accessors" : [
        {
            "bufferView" : 0,
            "componentType" : 5126,
            "count" : 13632,
            "max" : [
                1.0179057121276855,
                1.0179054737091064,
                1.2867045402526855
            ],
            "min" : [
                -1.0179057121276855,
                -1.0179057121276855,
                -1.5613889694213867
            ],
            "type" : "VEC3"
        },
        {
            "bufferView" : 1,
            "componentType" : 5126,
            "count" : 13632,
            "type" : "VEC3"
        },
        {
            "bufferView" : 2,
            "componentType" : 5123,
            "count" : 80628,
            "type" : "SCALAR"
        },
        {
            "bufferView" : 3,
            "componentType" : 5126,
            "count" : 17266,
            "max" : [
                1.0014190673828125,
                1.0014190673828125,
                0.7047597765922546
            ],
            "min" : [
                -1.0014190673828125,
                -1.0014190673828125,
                -6.488109111785889
            ],
            "type" : "VEC3"
        },
        {
            "bufferView" : 4,
            "componentType" : 5126,
            "count" : 17266,
            "type" : "VEC3"
        },
        {
            "bufferView" : 5,
            "componentType" : 5126,
            "count" : 17266,
            "type" : "VEC2"
        },
        {
            "bufferView" : 6,
            "componentType" : 5123,
            "count" : 102912,
            "type" : "SCALAR"
        }
    ],
    "bufferViews" : [
        {
            "buffer" : 0,
            "byteLength" : 163584,
            "byteOffset" : 0
        },
        {
            "buffer" : 0,
            "byteLength" : 163584,
            "byteOffset" : 163584
        },
        {
            "buffer" : 0,
            "byteLength" : 161256,
            "byteOffset" : 327168
        },
        {
            "buffer" : 0,
            "byteLength" : 207192,
            "byteOffset" : 488424
        },
        {
            "buffer" : 0,
            "byteLength" : 207192,
            "byteOffset" : 695616
        },
        {
            "buffer" : 0,
            "byteLength" : 138128,
            "byteOffset" : 902808
        },
        {
            "buffer" : 0,
            "byteLength" : 205824,
            "byteOffset" : 1040936
        },
        {
            "buffer" : 0,
            "byteLength" : 19601,
            "byteOffset" : 1246760
        }
    ],
    "buffers" : [
        {
            "byteLength" : 1266364,
            "uri" : "data:application/octet-stream;base64,"
        }
    ]
}
