{
    "asset" : {
        "generator" : "Khronos glTF Blender I/O v1.1.46",
        "version" : "2.0"
    },
    "scene" : 0,
    "scenes" : [
        {
            "name" : "Scene",
            "nodes" : [
                0,
                1,
                2,
                3,
                4,
                5,
                6,
                7
            ]
        }
    ],
    "nodes" : [
        {
            "name" : "Light",
            "rotation" : [
                0.16907575726509094,
                0.7558803558349609,
                -0.27217137813568115,
                0.570947527885437
            ],
            "translation" : [
                4.076245307922363,
                5.903861999511719,
                -1.0054539442062378
            ]
        },
        {
            "name" : "Camera",
            "rotation" : [
                0.483536034822464,
                0.33687159419059753,
                -0.20870360732078552,
                0.7804827094078064
            ],
            "translation" : [
                7.358891487121582,
                4.958309173583984,
                6.925790786743164
            ]
        },
        {
            "name" : "Light.001",
            "rotation" : [
                0.5232754945755005,
                0.34203392267227173,
                -0.7269423604011536,
                0.284166157245636
            ],
            "translation" : [
                4.076245307922363,
                5.903862476348877,
                -1.0054532289505005
            ]
        },
        {
            "name" : "Camera.001",
            "rotation" : [
                0.8937963247299194,
                0.09062855690717697,
                -0.3857799172401428,
                0.20997287333011627
            ],
            "translation" : [
                7.358891487121582,
                4.958308696746826,
                6.925792217254639
            ]
        },
        {
            "mesh" : 0,
            "name" : "cap",
            "rotation" : [
                1,
                0,
                0,
                -1.3435884227419592e-07
            ],
            "scale" : [
                0.19222967326641083,
                0.1922297179698944,
                0.1922297179698944
            ],
            "translation" : [
                0.01975533366203308,
                2.4118430614471436,
                0.0028730633202940226
            ]
        },
        {
            "mesh" : 1,
            "name" : "body",
            "rotation" : [
                1,
                0,
                0,
                -1.3435887069590535e-07
            ],
            "scale" : [
                0.3562011122703552,
                0.3562012016773224,
                0.3562012016773224
            ],
            "translation" : [
                0.017797350883483887,
                0.29362979531288147,
                0.0028724991716444492
            ]
        },
        {
            "name" : "Camera.002",
            "rotation" : [
                -0.7071065902709961,
                0,
                0,
                0.7071069478988647
            ],
            "translation" : [
                -0.018318049609661102,
                -0.5711793899536133,
                27.58495330810547
            ]
        },
        {
            "mesh" : 2,
            "name" : "logo",
            "rotation" : [
                1,
                0,
                0,
                -1.3435887069590535e-07
            ],
            "scale" : [
                0.3562011122703552,
                0.3562012016773224,
                0.3562012016773224
            ],
            "translation" : [
                0.017797350883483887,
                0.29362979531288147,
                0.0028724991716444492
            ]
        }
    ],
    "materials" : [
        {
            "doubleSided" : true,
            "emissiveFactor" : [
                0,
                0,
                0
            ],
            "name" : "cap",
            "pbrMetallicRoughness" : {
                "baseColorFactor" : [
                    1,
                    1,
                    1,
                    1
                ],
                "metallicFactor" : 0.75,
                "roughnessFactor" : 0.25
            }
        },
        {
            "doubleSided" : true,
            "emissiveFactor" : [
                0,
                0,
                0
            ],
            "name" : "body",
            "pbrMetallicRoughness" : {
                "baseColorFactor" : [
                    0.800000011920929,
                    0.800000011920929,
                    0.800000011920929,
                    1
                ],
                "metallicFactor" : 0.75,
                "roughnessFactor" : 0.25
            }
        },
        {
            "alphaMode" : "BLEND",
            "doubleSided" : true,
            "emissiveFactor" : [
                0,
                0,
                0
            ],
            "name" : "logo",
            "pbrMetallicRoughness" : {
                "baseColorTexture" : {
                    "index" : 0,
                    "texCoord" : 0
                },
                "metallicFactor" : 0.75,
                "roughnessFactor" : 0.25
            }
        }
    ],
    "meshes" : [
        {
            "name" : "cap",
            "primitives" : [
                {
                    "attributes" : {
                        "POSITION" : 0,
                        "NORMAL" : 1
                    },
                    "indices" : 2,
                    "material" : 0
                }
            ]
        },
        {
            "name" : "body",
            "primitives" : [
                {
                    "attributes" : {
                        "POSITION" : 3,
                        "NORMAL" : 4,
                        "TEXCOORD_0" : 5
                    },
                    "indices" : 6,
                    "material" : 1
                }
            ]
        },
        {
            "name" : "logo",
            "primitives" : [
                {
                    "attributes" : {
                        "POSITION" : 7,
                        "NORMAL" : 8,
                        "TEXCOORD_0" : 9
                    },
                    "indices" : 10,
                    "material" : 2
                }
            ]
        }
    ],
    "textures" : [
        {
            "source" : 0
        }
    ],
    "images" : [
        {
            "bufferView" : 11,
            "mimeType" : "image/png",
            "name" : "Nestle-Waters"
        }
    ],
    "accessors" : [
        {
            "bufferView" : 0,
            "componentType" : 5126,
            "count" : 15772,
            "max" : [
                1.0179057121276855,
                1.2867045402526855,
                1.0179057121276855
            ],
            "min" : [
                -1.0179057121276855,
                -1.5613889694213867,
                -1.0179054737091064
            ],
            "type" : "VEC3"
        },
        {
            "bufferView" : 1,
            "componentType" : 5126,
            "count" : 15772,
            "type" : "VEC3"
        },
        {
            "bufferView" : 2,
            "componentType" : 5123,
            "count" : 80628,
            "type" : "SCALAR"
        },
        {
            "bufferView" : 3,
            "componentType" : 5126,
            "count" : 17266,
            "max" : [
                1.0014190673828125,
                0.7047597765922546,
                1.0014190673828125
            ],
            "min" : [
                -1.0014190673828125,
                -6.488109111785889,
                -1.0014190673828125
            ],
            "type" : "VEC3"
        },
        {
            "bufferView" : 4,
            "componentType" : 5126,
            "count" : 17266,
            "type" : "VEC3"
        },
        {
            "bufferView" : 5,
            "componentType" : 5126,
            "count" : 17266,
            "type" : "VEC2"
        },
        {
            "bufferView" : 6,
            "componentType" : 5123,
            "count" : 102912,
            "type" : "SCALAR"
        },
        {
            "bufferView" : 7,
            "componentType" : 5126,
            "count" : 133,
            "max" : [
                0.7741044759750366,
                -1.3703455924987793,
                -0.6272203326225281
            ],
            "min" : [
                -0.7741039991378784,
                -2.856361150741577,
                -1.0014190673828125
            ],
            "type" : "VEC3"
        },
        {
            "bufferView" : 8,
            "componentType" : 5126,
            "count" : 133,
            "type" : "VEC3"
        },
        {
            "bufferView" : 9,
            "componentType" : 5126,
            "count" : 133,
            "type" : "VEC2"
        },
        {
            "bufferView" : 10,
            "componentType" : 5123,
            "count" : 648,
            "type" : "SCALAR"
        }
    ],
    "bufferViews" : [
        {
            "buffer" : 0,
            "byteLength" : 189264,
            "byteOffset" : 0
        },
        {
            "buffer" : 0,
            "byteLength" : 189264,
            "byteOffset" : 189264
        },
        {
            "buffer" : 0,
            "byteLength" : 161256,
            "byteOffset" : 378528
        },
        {
            "buffer" : 0,
            "byteLength" : 207192,
            "byteOffset" : 539784
        },
        {
            "buffer" : 0,
            "byteLength" : 207192,
            "byteOffset" : 746976
        },
        {
            "buffer" : 0,
            "byteLength" : 138128,
            "byteOffset" : 954168
        },
        {
            "buffer" : 0,
            "byteLength" : 205824,
            "byteOffset" : 1092296
        },
        {
            "buffer" : 0,
            "byteLength" : 1596,
            "byteOffset" : 1298120
        },
        {
            "buffer" : 0,
            "byteLength" : 1596,
            "byteOffset" : 1299716
        },
        {
            "buffer" : 0,
            "byteLength" : 1064,
            "byteOffset" : 1301312
        },
        {
            "buffer" : 0,
            "byteLength" : 1296,
            "byteOffset" : 1302376
        },
        {
            "buffer" : 0,
            "byteLength" : 217878,
            "byteOffset" : 1303672
        }
    ],
    "buffers" : [
        {
            "byteLength" : 1521552,
            "uri" : "data:application/octet-stream;base64,"
        }
    ]
}
