{
    "asset" : {
        "generator" : "Khronos glTF Blender I/O v1.1.46",
        "version" : "2.0"
    },
    "scene" : 0,
    "scenes" : [
        {
            "name" : "Scene",
            "nodes" : [
                0,
                1,
                2,
                3,
                4,
                5,
                6,
                7,
                8
            ]
        }
    ],
    "nodes" : [
        {
            "name" : "Camera",
            "rotation" : [
                0.04591100662946701,
                -0.7772337794303894,
                0.6249391436576843,
                0.05701679363846779
            ],
            "translation" : [
                -1.0854709148406982,
                3.975383758544922,
                -7.214395999908447
            ]
        },
        {
            "mesh" : 0,
            "name" : "body",
            "scale" : [
                0.6033358573913574,
                0.6033340096473694,
                0.6033340096473694
            ],
            "translation" : [
                -0.02880467101931572,
                0.6177612543106079,
                0.02590000070631504
            ]
        },
        {
            "mesh" : 1,
            "name" : "Cylinder.001",
            "rotation" : [
                0,
                0,
                0.7075663208961487,
                0.7066469788551331
            ],
            "scale" : [
                0.12668193876743317,
                0.12668193876743317,
                0.12668195366859436
            ],
            "translation" : [
                -0.031524352729320526,
                3.925291061401367,
                0.02828243561089039
            ]
        },
        {
            "mesh" : 2,
            "name" : "Cylinder.002",
            "rotation" : [
                -0.0005566191393882036,
                -0.0005577992415055633,
                -0.7076238393783569,
                0.706588864326477
            ],
            "scale" : [
                0.10497403144836426,
                0.10497400164604187,
                0.10497401654720306
            ],
            "translation" : [
                -0.05656494200229645,
                4.263065814971924,
                0.0262313075363636
            ]
        },
        {
            "mesh" : 3,
            "name" : "Cylinder.003",
            "scale" : [
                0.6128870248794556,
                0.6128870248794556,
                0.6128870248794556
            ],
            "translation" : [
                -0.026048243045806885,
                3.6587514877319336,
                0.02588161826133728
            ]
        },
        {
            "mesh" : 4,
            "name" : "Cylinder.004",
            "scale" : [
                0.39666223526000977,
                0.39666223526000977,
                0.39666223526000977
            ],
            "translation" : [
                -0.028395716100931168,
                3.942478656768799,
                0.027591442689299583
            ]
        },
        {
            "name" : "Light.001",
            "rotation" : [
                0.3572844862937927,
                0.6550940275192261,
                -0.3401396870613098,
                0.5722801685333252
            ],
            "translation" : [
                15.981176376342773,
                11.978047370910645,
                -0.03212509676814079
            ]
        },
        {
            "name" : "Light.002",
            "rotation" : [
                -0.4135510325431824,
                0.7747666239738464,
                0.22492040693759918,
                0.4220462739467621
            ],
            "translation" : [
                -15.922329902648926,
                11.987443923950195,
                -0.05902395769953728
            ]
        },
        {
            "mesh" : 5,
            "name" : "logo",
            "rotation" : [
                0,
                -0.9950873255729675,
                0,
                0.09900128841400146
            ],
            "scale" : [
                0.6033358573913574,
                0.6033340096473694,
                0.6033340096473694
            ],
            "translation" : [
                -0.02880467101931572,
                2.068251132965088,
                0.02590000070631504
            ]
        }
    ],
    "materials" : [
        {
            "doubleSided" : true,
            "emissiveFactor" : [
                0,
                0,
                0
            ],
            "name" : "body",
            "pbrMetallicRoughness" : {
                "baseColorFactor" : [
                    0.000910000002477318,
                    0.43415385484695435,
                    0.7083759307861328,
                    1
                ],
                "metallicFactor" : 0.3590909242630005,
                "roughnessFactor" : 1
            }
        },
        {
            "doubleSided" : true,
            "emissiveFactor" : [
                0,
                0,
                0
            ],
            "name" : "Metal",
            "pbrMetallicRoughness" : {
                "baseColorFactor" : [
                    1,
                    1,
                    1,
                    1
                ],
                "metallicFactor" : 1,
                "roughnessFactor" : 0.20000000298023224
            }
        },
        {
            "doubleSided" : true,
            "emissiveFactor" : [
                0,
                0,
                0
            ],
            "name" : "Handle Color",
            "pbrMetallicRoughness" : {
                "baseColorFactor" : [
                    0,
                    0,
                    0,
                    1
                ],
                "metallicFactor" : 0.6757575869560242,
                "roughnessFactor" : 1
            }
        },
        {
            "doubleSided" : true,
            "emissiveFactor" : [
                0,
                0,
                0
            ],
            "name" : "Cap Color",
            "pbrMetallicRoughness" : {
                "baseColorFactor" : [
                    0,
                    0,
                    0,
                    1
                ],
                "metallicFactor" : 0.3590909242630005,
                "roughnessFactor" : 1
            }
        },
        {
            "doubleSided" : true,
            "emissiveFactor" : [
                0,
                0,
                0
            ],
            "name" : "logo",
            "pbrMetallicRoughness" : {
                "baseColorTexture" : {
                    "index" : 0,
                    "texCoord" : 0
                },
                "metallicFactor" : 0.3590909242630005,
                "roughnessFactor" : 1
            }
        }
    ],
    "meshes" : [
        {
            "name" : "body",
            "primitives" : [
                {
                    "attributes" : {
                        "POSITION" : 0,
                        "NORMAL" : 1,
                        "TEXCOORD_0" : 2
                    },
                    "indices" : 3,
                    "material" : 0
                }
            ]
        },
        {
            "name" : "Cylinder.003",
            "primitives" : [
                {
                    "attributes" : {
                        "POSITION" : 4,
                        "NORMAL" : 5,
                        "TEXCOORD_0" : 6
                    },
                    "indices" : 7,
                    "material" : 1
                }
            ]
        },
        {
            "name" : "Cylinder.002",
            "primitives" : [
                {
                    "attributes" : {
                        "POSITION" : 8,
                        "NORMAL" : 9,
                        "TEXCOORD_0" : 10
                    },
                    "indices" : 11,
                    "material" : 2
                }
            ]
        },
        {
            "name" : "Cylinder.001",
            "primitives" : [
                {
                    "attributes" : {
                        "POSITION" : 12,
                        "NORMAL" : 13,
                        "TEXCOORD_0" : 14
                    },
                    "indices" : 15,
                    "material" : 1
                }
            ]
        },
        {
            "name" : "Cylinder.004",
            "primitives" : [
                {
                    "attributes" : {
                        "POSITION" : 16,
                        "NORMAL" : 17,
                        "TEXCOORD_0" : 18
                    },
                    "indices" : 19,
                    "material" : 3
                }
            ]
        },
        {
            "name" : "logo",
            "primitives" : [
                {
                    "attributes" : {
                        "POSITION" : 20,
                        "NORMAL" : 21,
                        "TEXCOORD_0" : 22
                    },
                    "indices" : 23,
                    "material" : 4
                }
            ]
        }
    ],
    "textures" : [
        {
            "source" : 0
        }
    ],
    "images" : [
        {
            "bufferView" : 24,
            "mimeType" : "image/jpeg",
            "name" : "google"
        }
    ],
    "accessors" : [
        {
            "bufferView" : 0,
            "componentType" : 5126,
            "count" : 823,
            "max" : [
                1.0040178298950195,
                4.916358947753906,
                1.0040178298950195
            ],
            "min" : [
                -1.0040178298950195,
                -0.9798914194107056,
                -1.0040178298950195
            ],
            "type" : "VEC3"
        },
        {
            "bufferView" : 1,
            "componentType" : 5126,
            "count" : 823,
            "type" : "VEC3"
        },
        {
            "bufferView" : 2,
            "componentType" : 5126,
            "count" : 823,
            "type" : "VEC2"
        },
        {
            "bufferView" : 3,
            "componentType" : 5123,
            "count" : 4410,
            "type" : "SCALAR"
        },
        {
            "bufferView" : 4,
            "componentType" : 5126,
            "count" : 392,
            "max" : [
                1.005122423171997,
                3.773021936416626,
                1
            ],
            "min" : [
                -1.005123257637024,
                -3.779494524002075,
                -1
            ],
            "type" : "VEC3"
        },
        {
            "bufferView" : 5,
            "componentType" : 5126,
            "count" : 392,
            "type" : "VEC3"
        },
        {
            "bufferView" : 6,
            "componentType" : 5126,
            "count" : 392,
            "type" : "VEC2"
        },
        {
            "bufferView" : 7,
            "componentType" : 5123,
            "count" : 1512,
            "type" : "SCALAR"
        },
        {
            "bufferView" : 8,
            "componentType" : 5126,
            "count" : 1306,
            "max" : [
                4.234761714935303,
                4.592790126800537,
                0.9930042028427124
            ],
            "min" : [
                -4.23527717590332,
                -4.109676837921143,
                -1.0069961547851562
            ],
            "type" : "VEC3"
        },
        {
            "bufferView" : 9,
            "componentType" : 5126,
            "count" : 1306,
            "type" : "VEC3"
        },
        {
            "bufferView" : 10,
            "componentType" : 5126,
            "count" : 1306,
            "type" : "VEC2"
        },
        {
            "bufferView" : 11,
            "componentType" : 5123,
            "count" : 6780,
            "type" : "SCALAR"
        },
        {
            "bufferView" : 12,
            "componentType" : 5126,
            "count" : 1020,
            "max" : [
                0.6440403461456299,
                0.13553333282470703,
                0.6477233171463013
            ],
            "min" : [
                -0.6521018743515015,
                -0.15420961380004883,
                -0.647720992565155
            ],
            "type" : "VEC3"
        },
        {
            "bufferView" : 13,
            "componentType" : 5126,
            "count" : 1020,
            "type" : "VEC3"
        },
        {
            "bufferView" : 14,
            "componentType" : 5126,
            "count" : 1020,
            "type" : "VEC2"
        },
        {
            "bufferView" : 15,
            "componentType" : 5123,
            "count" : 5712,
            "type" : "SCALAR"
        },
        {
            "bufferView" : 16,
            "componentType" : 5126,
            "count" : 294,
            "max" : [
                0.9999998807907104,
                0.40771985054016113,
                1.0000003576278687
            ],
            "min" : [
                -1.0000001192092896,
                -0.50958651304245,
                -0.9999997019767761
            ],
            "type" : "VEC3"
        },
        {
            "bufferView" : 17,
            "componentType" : 5126,
            "count" : 294,
            "type" : "VEC3"
        },
        {
            "bufferView" : 18,
            "componentType" : 5126,
            "count" : 294,
            "type" : "VEC2"
        },
        {
            "bufferView" : 19,
            "componentType" : 5123,
            "count" : 1236,
            "type" : "SCALAR"
        },
        {
            "bufferView" : 20,
            "componentType" : 5126,
            "count" : 24,
            "max" : [
                0.8348103761672974,
                1,
                1.0040178298950195
            ],
            "min" : [
                -0.927591860294342,
                -0.7042514085769653,
                0.38386592268943787
            ],
            "type" : "VEC3"
        },
        {
            "bufferView" : 21,
            "componentType" : 5126,
            "count" : 24,
            "type" : "VEC3"
        },
        {
            "bufferView" : 22,
            "componentType" : 5126,
            "count" : 24,
            "type" : "VEC2"
        },
        {
            "bufferView" : 23,
            "componentType" : 5123,
            "count" : 66,
            "type" : "SCALAR"
        }
    ],
    "bufferViews" : [
        {
            "buffer" : 0,
            "byteLength" : 9876,
            "byteOffset" : 0
        },
        {
            "buffer" : 0,
            "byteLength" : 9876,
            "byteOffset" : 9876
        },
        {
            "buffer" : 0,
            "byteLength" : 6584,
            "byteOffset" : 19752
        },
        {
            "buffer" : 0,
            "byteLength" : 8820,
            "byteOffset" : 26336
        },
        {
            "buffer" : 0,
            "byteLength" : 4704,
            "byteOffset" : 35156
        },
        {
            "buffer" : 0,
            "byteLength" : 4704,
            "byteOffset" : 39860
        },
        {
            "buffer" : 0,
            "byteLength" : 3136,
            "byteOffset" : 44564
        },
        {
            "buffer" : 0,
            "byteLength" : 3024,
            "byteOffset" : 47700
        },
        {
            "buffer" : 0,
            "byteLength" : 15672,
            "byteOffset" : 50724
        },
        {
            "buffer" : 0,
            "byteLength" : 15672,
            "byteOffset" : 66396
        },
        {
            "buffer" : 0,
            "byteLength" : 10448,
            "byteOffset" : 82068
        },
        {
            "buffer" : 0,
            "byteLength" : 13560,
            "byteOffset" : 92516
        },
        {
            "buffer" : 0,
            "byteLength" : 12240,
            "byteOffset" : 106076
        },
        {
            "buffer" : 0,
            "byteLength" : 12240,
            "byteOffset" : 118316
        },
        {
            "buffer" : 0,
            "byteLength" : 8160,
            "byteOffset" : 130556
        },
        {
            "buffer" : 0,
            "byteLength" : 11424,
            "byteOffset" : 138716
        },
        {
            "buffer" : 0,
            "byteLength" : 3528,
            "byteOffset" : 150140
        },
        {
            "buffer" : 0,
            "byteLength" : 3528,
            "byteOffset" : 153668
        },
        {
            "buffer" : 0,
            "byteLength" : 2352,
            "byteOffset" : 157196
        },
        {
            "buffer" : 0,
            "byteLength" : 2472,
            "byteOffset" : 159548
        },
        {
            "buffer" : 0,
            "byteLength" : 288,
            "byteOffset" : 162020
        },
        {
            "buffer" : 0,
            "byteLength" : 288,
            "byteOffset" : 162308
        },
        {
            "buffer" : 0,
            "byteLength" : 192,
            "byteOffset" : 162596
        },
        {
            "buffer" : 0,
            "byteLength" : 132,
            "byteOffset" : 162788
        },
        {
            "buffer" : 0,
            "byteLength" : 19091,
            "byteOffset" : 162920
        }
    ],
    "buffers" : [
        {
            "byteLength" : 182012,
            "uri" : "data:application/octet-stream;base64,"
        }
    ]
}
