{
    "asset" : {
        "generator" : "Khronos glTF Blender I/O v1.1.46",
        "version" : "2.0"
    },
    "scene" : 0,
    "scenes" : [
        {
            "name" : "Scene",
            "nodes" : [
                0,
                1,
                2,
                3,
                4
            ]
        }
    ],
    "nodes" : [
        {
            "name" : "Light",
            "rotation" : [
                0.16907575726509094,
                0.7558803558349609,
                -0.27217137813568115,
                0.570947527885437
            ],
            "translation" : [
                4.076245307922363,
                5.903861999511719,
                -1.0054539442062378
            ]
        },
        {
            "name" : "Camera",
            "rotation" : [
                0.483536034822464,
                0.33687159419059753,
                -0.20870360732078552,
                0.7804827094078064
            ],
            "translation" : [
                7.358891487121582,
                4.958309173583984,
                6.925790786743164
            ]
        },
        {
            "mesh" : 0,
            "name" : "cap",
            "rotation" : [
                -0.7071065902709961,
                0,
                0,
                0.7071069478988647
            ],
            "scale" : [
                0.14536257088184357,
                0.14536260068416595,
                0.14536260068416595
            ],
            "translation" : [
                0.033265598118305206,
                1.790768027305603,
                -0.007768924813717604
            ]
        },
        {
            "mesh" : 1,
            "name" : "bottle",
            "rotation" : [
                -0.7071065902709961,
                0,
                0,
                0.7071069478988647
            ],
            "scale" : [
                0.26935648918151855,
                0.26935654878616333,
                0.26935654878616333
            ],
            "translation" : [
                0.0326133593916893,
                0.22057554125785828,
                -0.007177564315497875
            ]
        },
        {
            "mesh" : 2,
            "name" : "logo",
            "rotation" : [
                -0.7071065902709961,
                0,
                0,
                0.7071069478988647
            ],
            "scale" : [
                0.26935648918151855,
                0.26935654878616333,
                0.26935654878616333
            ],
            "translation" : [
                0.0326133593916893,
                0.22057554125785828,
                -0.007177564315497875
            ]
        }
    ],
    "materials" : [
        {
            "doubleSided" : true,
            "emissiveFactor" : [
                0,
                0,
                0
            ],
            "name" : "cap",
            "pbrMetallicRoughness" : {
                "baseColorFactor" : [
                    0.800000011920929,
                    0.800000011920929,
                    0.800000011920929,
                    1
                ],
                "metallicFactor" : 0.804347813129425,
                "roughnessFactor" : 0.20108696818351746
            }
        },
        {
            "doubleSided" : true,
            "emissiveFactor" : [
                0,
                0,
                0
            ],
            "name" : "color",
            "pbrMetallicRoughness" : {
                "baseColorFactor" : [
                    0.8000000715255737,
                    0.4519141614437103,
                    0.23543451726436615,
                    1
                ],
                "metallicFactor" : 0.7771739363670349,
                "roughnessFactor" : 0.27173912525177
            }
        },
        {
            "doubleSided" : true,
            "emissiveFactor" : [
                0,
                0,
                0
            ],
            "name" : "logo",
            "pbrMetallicRoughness" : {
                "baseColorFactor" : [
                    0.7037488222122192,
                    0.2069055736064911,
                    0.5103855729103088,
                    1
                ],
                "metallicFactor" : 0.804347813129425,
                "roughnessFactor" : 0.5
            }
        }
    ],
    "meshes" : [
        {
            "name" : "cap",
            "primitives" : [
                {
                    "attributes" : {
                        "POSITION" : 0,
                        "NORMAL" : 1
                    },
                    "indices" : 2,
                    "material" : 0
                }
            ]
        },
        {
            "name" : "bottle",
            "primitives" : [
                {
                    "attributes" : {
                        "POSITION" : 3,
                        "NORMAL" : 4,
                        "TEXCOORD_0" : 5
                    },
                    "indices" : 6,
                    "material" : 1
                }
            ]
        },
        {
            "name" : "logo",
            "primitives" : [
                {
                    "attributes" : {
                        "POSITION" : 7,
                        "NORMAL" : 8,
                        "TEXCOORD_0" : 9
                    },
                    "indices" : 10,
                    "material" : 2
                }
            ]
        }
    ],
    "accessors" : [
        {
            "bufferView" : 0,
            "componentType" : 5126,
            "count" : 15810,
            "max" : [
                1.0179057121276855,
                1.0179057121276855,
                1.5613889694213867
            ],
            "min" : [
                -1.0179057121276855,
                -1.0179054737091064,
                -1.2867045402526855
            ],
            "type" : "VEC3"
        },
        {
            "bufferView" : 1,
            "componentType" : 5126,
            "count" : 15810,
            "type" : "VEC3"
        },
        {
            "bufferView" : 2,
            "componentType" : 5123,
            "count" : 80628,
            "type" : "SCALAR"
        },
        {
            "bufferView" : 3,
            "componentType" : 5126,
            "count" : 17202,
            "max" : [
                1.0014190673828125,
                1.0014190673828125,
                6.488109111785889
            ],
            "min" : [
                -1.0014190673828125,
                -1.0014190673828125,
                -0.7047597765922546
            ],
            "type" : "VEC3"
        },
        {
            "bufferView" : 4,
            "componentType" : 5126,
            "count" : 17202,
            "type" : "VEC3"
        },
        {
            "bufferView" : 5,
            "componentType" : 5126,
            "count" : 17202,
            "type" : "VEC2"
        },
        {
            "bufferView" : 6,
            "componentType" : 5123,
            "count" : 102912,
            "type" : "SCALAR"
        },
        {
            "bufferView" : 7,
            "componentType" : 5126,
            "count" : 98,
            "max" : [
                0.3817049264907837,
                -0.6034014225006104,
                3.5594964027404785
            ],
            "min" : [
                -0.7710297107696533,
                -0.9974418878555298,
                2.375272512435913
            ],
            "type" : "VEC3"
        },
        {
            "bufferView" : 8,
            "componentType" : 5126,
            "count" : 98,
            "type" : "VEC3"
        },
        {
            "bufferView" : 9,
            "componentType" : 5126,
            "count" : 98,
            "type" : "VEC2"
        },
        {
            "bufferView" : 10,
            "componentType" : 5123,
            "count" : 468,
            "type" : "SCALAR"
        }
    ],
    "bufferViews" : [
        {
            "buffer" : 0,
            "byteLength" : 189720,
            "byteOffset" : 0
        },
        {
            "buffer" : 0,
            "byteLength" : 189720,
            "byteOffset" : 189720
        },
        {
            "buffer" : 0,
            "byteLength" : 161256,
            "byteOffset" : 379440
        },
        {
            "buffer" : 0,
            "byteLength" : 206424,
            "byteOffset" : 540696
        },
        {
            "buffer" : 0,
            "byteLength" : 206424,
            "byteOffset" : 747120
        },
        {
            "buffer" : 0,
            "byteLength" : 137616,
            "byteOffset" : 953544
        },
        {
            "buffer" : 0,
            "byteLength" : 205824,
            "byteOffset" : 1091160
        },
        {
            "buffer" : 0,
            "byteLength" : 1176,
            "byteOffset" : 1296984
        },
        {
            "buffer" : 0,
            "byteLength" : 1176,
            "byteOffset" : 1298160
        },
        {
            "buffer" : 0,
            "byteLength" : 784,
            "byteOffset" : 1299336
        },
        {
            "buffer" : 0,
            "byteLength" : 936,
            "byteOffset" : 1300120
        }
    ],
    "buffers" : [
        {
            "byteLength" : 1301056,
            "uri" : "data:application/octet-stream;base64,"
        }
    ]
}
