{
    "asset" : {
        "generator" : "Khronos glTF Blender I/O v1.1.46",
        "version" : "2.0"
    },
    "scene" : 0,
    "scenes" : [
        {
            "name" : "Scene",
            "nodes" : [
                0,
                1,
                2,
                3,
                4,
                5,
                6,
                7,
                8,
                9,
                10
            ]
        }
    ],
    "nodes" : [
        {
            "name" : "Light",
            "rotation" : [
                0.16907575726509094,
                0.7558803558349609,
                -0.27217137813568115,
                0.570947527885437
            ],
            "translation" : [
                4.076245307922363,
                5.903861999511719,
                -1.0054539442062378
            ]
        },
        {
            "name" : "Camera",
            "rotation" : [
                0.483536034822464,
                0.33687159419059753,
                -0.20870360732078552,
                0.7804827094078064
            ],
            "translation" : [
                7.358891487121582,
                4.958309173583984,
                6.925790786743164
            ]
        },
        {
            "name" : "Camera.001",
            "rotation" : [
                -0.07278086245059967,
                0.10768865048885345,
                -0.9914860725402832,
                -0.007852800190448761
            ],
            "translation" : [
                -1.0854709148406982,
                3.9753851890563965,
                -7.2143964767456055
            ]
        },
        {
            "mesh" : 0,
            "name" : "body",
            "rotation" : [
                0.7071068286895752,
                0,
                0,
                0.7071067094802856
            ],
            "scale" : [
                0.6033358573913574,
                0.6033340692520142,
                0.6033340692520142
            ],
            "translation" : [
                -0.02880467101931572,
                0.6177613139152527,
                0.025900088250637054
            ]
        },
        {
            "mesh" : 1,
            "name" : "Cylinder.001",
            "rotation" : [
                0.499674916267395,
                0.5003249049186707,
                0.5003249645233154,
                0.49967485666275024
            ],
            "scale" : [
                0.12668198347091675,
                0.12668196856975555,
                0.12668196856975555
            ],
            "translation" : [
                -0.031524352729320526,
                3.9252915382385254,
                0.02828296646475792
            ]
        },
        {
            "mesh" : 2,
            "name" : "Cylinder.002",
            "rotation" : [
                0.49924027919769287,
                -0.5007600784301758,
                -0.4999712109565735,
                0.5000274181365967
            ],
            "scale" : [
                0.10497404634952545,
                0.10497403144836426,
                0.10497399419546127
            ],
            "translation" : [
                -0.05656494200229645,
                4.263066291809082,
                0.026231884956359863
            ]
        },
        {
            "mesh" : 3,
            "name" : "Cylinder.003",
            "rotation" : [
                0.7071068286895752,
                0,
                0,
                0.7071067094802856
            ],
            "scale" : [
                0.6128870248794556,
                0.6128870844841003,
                0.6128870844841003
            ],
            "translation" : [
                -0.026048243045806885,
                3.658751964569092,
                0.025882113724946976
            ]
        },
        {
            "mesh" : 4,
            "name" : "Cylinder.004",
            "rotation" : [
                0.7071068286895752,
                0,
                0,
                0.7071067094802856
            ],
            "scale" : [
                0.39666223526000977,
                0.39666229486465454,
                0.39666229486465454
            ],
            "translation" : [
                -0.028395716100931168,
                3.942479133605957,
                0.027591975405812263
            ]
        },
        {
            "name" : "Light.001",
            "rotation" : [
                0.657301664352417,
                0.22270642220973969,
                -0.703736424446106,
                0.15202482044696808
            ],
            "translation" : [
                15.981176376342773,
                11.978048324584961,
                -0.032123491168022156
            ]
        },
        {
            "name" : "Light.002",
            "rotation" : [
                0.006007105112075806,
                0.7068855166435242,
                -0.38879987597465515,
                0.5908565521240234
            ],
            "translation" : [
                -15.922329902648926,
                11.987444877624512,
                -0.05902235582470894
            ]
        },
        {
            "mesh" : 5,
            "name" : "logo",
            "rotation" : [
                0.0700049176812172,
                -0.7036331295967102,
                0.7036328315734863,
                0.07000470161437988
            ],
            "scale" : [
                0.603335976600647,
                0.6033342480659485,
                0.6033340692520142
            ],
            "translation" : [
                -0.02880467101931572,
                2.068251371383667,
                0.025900281965732574
            ]
        }
    ],
    "materials" : [
        {
            "doubleSided" : true,
            "emissiveFactor" : [
                0,
                0,
                0
            ],
            "name" : "body",
            "pbrMetallicRoughness" : {
                "baseColorFactor" : [
                    0.0009104907512664795,
                    0.43415385484695435,
                    0.7083759307861328,
                    1
                ],
                "metallicFactor" : 0.3590909242630005,
                "roughnessFactor" : 1
            }
        },
        {
            "doubleSided" : true,
            "emissiveFactor" : [
                0,
                0,
                0
            ],
            "name" : "Metal",
            "pbrMetallicRoughness" : {
                "baseColorFactor" : [
                    1,
                    1,
                    1,
                    1
                ],
                "metallicFactor" : 1,
                "roughnessFactor" : 0.20000000298023224
            }
        },
        {
            "doubleSided" : true,
            "emissiveFactor" : [
                0,
                0,
                0
            ],
            "name" : "Handle Color",
            "pbrMetallicRoughness" : {
                "baseColorFactor" : [
                    0,
                    0,
                    0,
                    1
                ],
                "metallicFactor" : 0.6757575869560242,
                "roughnessFactor" : 1
            }
        },
        {
            "doubleSided" : true,
            "emissiveFactor" : [
                0,
                0,
                0
            ],
            "name" : "Cap Color",
            "pbrMetallicRoughness" : {
                "baseColorFactor" : [
                    0,
                    0,
                    0,
                    1
                ],
                "metallicFactor" : 0.3590909242630005,
                "roughnessFactor" : 1
            }
        },
        {
            "doubleSided" : true,
            "emissiveFactor" : [
                0,
                0,
                0
            ],
            "name" : "logo",
            "pbrMetallicRoughness" : {
                "baseColorTexture" : {
                    "index" : 0,
                    "texCoord" : 0
                },
                "metallicFactor" : 0.3590909242630005,
                "roughnessFactor" : 1
            }
        }
    ],
    "meshes" : [
        {
            "name" : "body",
            "primitives" : [
                {
                    "attributes" : {
                        "POSITION" : 0,
                        "NORMAL" : 1,
                        "TEXCOORD_0" : 2
                    },
                    "indices" : 3,
                    "material" : 0
                }
            ]
        },
        {
            "name" : "Cylinder.003",
            "primitives" : [
                {
                    "attributes" : {
                        "POSITION" : 4,
                        "NORMAL" : 5,
                        "TEXCOORD_0" : 6
                    },
                    "indices" : 7,
                    "material" : 1
                }
            ]
        },
        {
            "name" : "Cylinder.002",
            "primitives" : [
                {
                    "attributes" : {
                        "POSITION" : 8,
                        "NORMAL" : 9,
                        "TEXCOORD_0" : 10
                    },
                    "indices" : 11,
                    "material" : 2
                }
            ]
        },
        {
            "name" : "Cylinder.001",
            "primitives" : [
                {
                    "attributes" : {
                        "POSITION" : 12,
                        "NORMAL" : 13,
                        "TEXCOORD_0" : 14
                    },
                    "indices" : 15,
                    "material" : 1
                }
            ]
        },
        {
            "name" : "Cylinder.004",
            "primitives" : [
                {
                    "attributes" : {
                        "POSITION" : 16,
                        "NORMAL" : 17,
                        "TEXCOORD_0" : 18
                    },
                    "indices" : 19,
                    "material" : 3
                }
            ]
        },
        {
            "name" : "logo",
            "primitives" : [
                {
                    "attributes" : {
                        "POSITION" : 20,
                        "NORMAL" : 21,
                        "TEXCOORD_0" : 22
                    },
                    "indices" : 23,
                    "material" : 4
                }
            ]
        }
    ],
    "textures" : [
        {
            "source" : 0
        }
    ],
    "images" : [
        {
            "bufferView" : 24,
            "mimeType" : "image/png",
            "name" : "google"
        }
    ],
    "accessors" : [
        {
            "bufferView" : 0,
            "componentType" : 5126,
            "count" : 1010,
            "max" : [
                1.0040178298950195,
                1.0040178298950195,
                0.9798914194107056
            ],
            "min" : [
                -1.0040178298950195,
                -1.0040178298950195,
                -4.916358947753906
            ],
            "type" : "VEC3"
        },
        {
            "bufferView" : 1,
            "componentType" : 5126,
            "count" : 1010,
            "type" : "VEC3"
        },
        {
            "bufferView" : 2,
            "componentType" : 5126,
            "count" : 1010,
            "type" : "VEC2"
        },
        {
            "bufferView" : 3,
            "componentType" : 5123,
            "count" : 4410,
            "type" : "SCALAR"
        },
        {
            "bufferView" : 4,
            "componentType" : 5126,
            "count" : 392,
            "max" : [
                1.005122423171997,
                1,
                3.779494524002075
            ],
            "min" : [
                -1.005123257637024,
                -1,
                -3.773021936416626
            ],
            "type" : "VEC3"
        },
        {
            "bufferView" : 5,
            "componentType" : 5126,
            "count" : 392,
            "type" : "VEC3"
        },
        {
            "bufferView" : 6,
            "componentType" : 5126,
            "count" : 392,
            "type" : "VEC2"
        },
        {
            "bufferView" : 7,
            "componentType" : 5123,
            "count" : 1512,
            "type" : "SCALAR"
        },
        {
            "bufferView" : 8,
            "componentType" : 5126,
            "count" : 1404,
            "max" : [
                4.234761714935303,
                0.9930042028427124,
                4.109676837921143
            ],
            "min" : [
                -4.23527717590332,
                -1.0069961547851562,
                -4.592790126800537
            ],
            "type" : "VEC3"
        },
        {
            "bufferView" : 9,
            "componentType" : 5126,
            "count" : 1404,
            "type" : "VEC3"
        },
        {
            "bufferView" : 10,
            "componentType" : 5126,
            "count" : 1404,
            "type" : "VEC2"
        },
        {
            "bufferView" : 11,
            "componentType" : 5123,
            "count" : 6780,
            "type" : "SCALAR"
        },
        {
            "bufferView" : 12,
            "componentType" : 5126,
            "count" : 1020,
            "max" : [
                0.6440403461456299,
                0.6477233171463013,
                0.15420961380004883
            ],
            "min" : [
                -0.6521018743515015,
                -0.647720992565155,
                -0.13553333282470703
            ],
            "type" : "VEC3"
        },
        {
            "bufferView" : 13,
            "componentType" : 5126,
            "count" : 1020,
            "type" : "VEC3"
        },
        {
            "bufferView" : 14,
            "componentType" : 5126,
            "count" : 1020,
            "type" : "VEC2"
        },
        {
            "bufferView" : 15,
            "componentType" : 5123,
            "count" : 5712,
            "type" : "SCALAR"
        },
        {
            "bufferView" : 16,
            "componentType" : 5126,
            "count" : 262,
            "max" : [
                0.9999998807907104,
                1.0000003576278687,
                0.50958651304245
            ],
            "min" : [
                -1.0000001192092896,
                -0.9999997019767761,
                -0.40771985054016113
            ],
            "type" : "VEC3"
        },
        {
            "bufferView" : 17,
            "componentType" : 5126,
            "count" : 262,
            "type" : "VEC3"
        },
        {
            "bufferView" : 18,
            "componentType" : 5126,
            "count" : 262,
            "type" : "VEC2"
        },
        {
            "bufferView" : 19,
            "componentType" : 5123,
            "count" : 1140,
            "type" : "SCALAR"
        },
        {
            "bufferView" : 20,
            "componentType" : 5126,
            "count" : 24,
            "max" : [
                0.8348103761672974,
                1.0040178298950195,
                0.7042514085769653
            ],
            "min" : [
                -0.927591860294342,
                0.38386592268943787,
                -1
            ],
            "type" : "VEC3"
        },
        {
            "bufferView" : 21,
            "componentType" : 5126,
            "count" : 24,
            "type" : "VEC3"
        },
        {
            "bufferView" : 22,
            "componentType" : 5126,
            "count" : 24,
            "type" : "VEC2"
        },
        {
            "bufferView" : 23,
            "componentType" : 5123,
            "count" : 66,
            "type" : "SCALAR"
        }
    ],
    "bufferViews" : [
        {
            "buffer" : 0,
            "byteLength" : 12120,
            "byteOffset" : 0
        },
        {
            "buffer" : 0,
            "byteLength" : 12120,
            "byteOffset" : 12120
        },
        {
            "buffer" : 0,
            "byteLength" : 8080,
            "byteOffset" : 24240
        },
        {
            "buffer" : 0,
            "byteLength" : 8820,
            "byteOffset" : 32320
        },
        {
            "buffer" : 0,
            "byteLength" : 4704,
            "byteOffset" : 41140
        },
        {
            "buffer" : 0,
            "byteLength" : 4704,
            "byteOffset" : 45844
        },
        {
            "buffer" : 0,
            "byteLength" : 3136,
            "byteOffset" : 50548
        },
        {
            "buffer" : 0,
            "byteLength" : 3024,
            "byteOffset" : 53684
        },
        {
            "buffer" : 0,
            "byteLength" : 16848,
            "byteOffset" : 56708
        },
        {
            "buffer" : 0,
            "byteLength" : 16848,
            "byteOffset" : 73556
        },
        {
            "buffer" : 0,
            "byteLength" : 11232,
            "byteOffset" : 90404
        },
        {
            "buffer" : 0,
            "byteLength" : 13560,
            "byteOffset" : 101636
        },
        {
            "buffer" : 0,
            "byteLength" : 12240,
            "byteOffset" : 115196
        },
        {
            "buffer" : 0,
            "byteLength" : 12240,
            "byteOffset" : 127436
        },
        {
            "buffer" : 0,
            "byteLength" : 8160,
            "byteOffset" : 139676
        },
        {
            "buffer" : 0,
            "byteLength" : 11424,
            "byteOffset" : 147836
        },
        {
            "buffer" : 0,
            "byteLength" : 3144,
            "byteOffset" : 159260
        },
        {
            "buffer" : 0,
            "byteLength" : 3144,
            "byteOffset" : 162404
        },
        {
            "buffer" : 0,
            "byteLength" : 2096,
            "byteOffset" : 165548
        },
        {
            "buffer" : 0,
            "byteLength" : 2280,
            "byteOffset" : 167644
        },
        {
            "buffer" : 0,
            "byteLength" : 288,
            "byteOffset" : 169924
        },
        {
            "buffer" : 0,
            "byteLength" : 288,
            "byteOffset" : 170212
        },
        {
            "buffer" : 0,
            "byteLength" : 192,
            "byteOffset" : 170500
        },
        {
            "buffer" : 0,
            "byteLength" : 132,
            "byteOffset" : 170692
        },
        {
            "buffer" : 0,
            "byteLength" : 86818,
            "byteOffset" : 170824
        }
    ],
    "buffers" : [
        {
            "byteLength" : 257644,
            "uri" : "data:application/octet-stream;base64,"
        }
    ]
}
